<?xml version="1.0" encoding="UTF-8" standalone="no"?>
<svg
   xmlns:dc="http://purl.org/dc/elements/1.1/"
   xmlns:cc="http://creativecommons.org/ns#"
   xmlns:rdf="http://www.w3.org/1999/02/22-rdf-syntax-ns#"
   xmlns:svg="http://www.w3.org/2000/svg"
   xmlns="http://www.w3.org/2000/svg"
   xmlns:sodipodi="http://sodipodi.sourceforge.net/DTD/sodipodi-0.dtd"
   xmlns:inkscape="http://www.inkscape.org/namespaces/inkscape"
   version="1.1"
   id="svg38"
   xml:space="preserve"
   width="678.98669"
   height="685.76001"
   viewBox="0 0 678.98669 685.76001"
   sodipodi:docname="sevi.svg"
   inkscape:version="1.0.2 (e86c8708, 2021-01-15)"><metadata
     id="metadata44"><rdf:RDF><cc:Work
         rdf:about=""><dc:format>image/svg+xml</dc:format><dc:type
           rdf:resource="http://purl.org/dc/dcmitype/StillImage" /><dc:title /></cc:Work></rdf:RDF></metadata><defs
     id="defs42" /><sodipodi:namedview
     pagecolor="#ffffff"
     bordercolor="#666666"
     borderopacity="1"
     objecttolerance="10"
     gridtolerance="10"
     guidetolerance="10"
     inkscape:pageopacity="0"
     inkscape:pageshadow="2"
     inkscape:window-width="1547"
     inkscape:window-height="1027"
     id="namedview40"
     showgrid="false"
     inkscape:zoom="0.97264348"
     inkscape:cx="213.54791"
     inkscape:cy="377.83629"
     inkscape:window-x="0"
     inkscape:window-y="25"
     inkscape:window-maximized="0"
     inkscape:current-layer="g48"
     inkscape:document-rotation="0" /><g
     id="g46"
     inkscape:groupmode="layer"
     inkscape:label="ink_ext_XXXXXX"
     transform="matrix(1.3333333,0,0,-1.3333333,0,685.76)"><g
       id="g48"
       transform="scale(0.1)"><path
         d="m 431.95324,2491.3502 c 1.81083,2.23 2.61567,5.1305 4.62774,7.1761 6.55581,6.6732 12.45773,13.8494 18.44343,20.9753 25.98853,35.6463 47.4836,74.2267 72.55003,110.5101 2.31376,3.3533 4.84555,6.5558 7.20971,9.842 -17.57162,8.1152 -32.39351,17.2867 -43.64403,27.833 -23.37297,21.998 -35.10974,50.6861 -35.10974,86.2652 0,43.9123 18.79563,78.7537 56.47065,104.3399 37.59125,25.4855 89.03179,38.3121 154.38881,38.3121 81.77167,0 161.53151,-22.6855 239.32958,-67.9726 42.83917,-24.949 97.78398,-7.8804 117.61908,37.5577 v 0 c 16.2806,37.3061 3.4372,81.2686 -30.7671,103.3338 -34.77435,22.434 -73.23742,41.0619 -115.38911,55.9005 -66.74878,23.373 -136.98494,35.1098 -210.79245,35.1098 -123.58821,0 -223.33388,-29.057 -299.23725,-87.2713 -75.92016,-58.2312 -113.86339,-134.1345 -113.86339,-227.8442 0,-73.8913 23.37287,-134.956 70.21937,-183.1774 27.69879,-28.5203 64.35104,-51.7591 107.94467,-70.89"
         style="fill:#35539e;fill-opacity:1;fill-rule:nonzero;stroke:none;stroke-width:1.67668"
         id="path52" /><path
         d="m 1001.1698,2471.7665 c -46.86317,47.5675 -120.65391,82.6939 -221.42257,105.4297 l -44.28112,10.1272 c -13.66496,-18.9801 -27.91683,-37.6751 -41.2129,-57.1749 -21.20993,-31.1192 -40.52529,-63.3617 -61.39995,-94.4977 l 72.36546,-16.0626 c 60.96412,-14.2015 103.97105,-31.9073 128.81955,-53.2682 24.8484,-21.2603 37.22226,-50.334 37.22226,-87.288 0,-42.5374 -18.42663,-75.5345 -55.38079,-99.008 -36.85348,-23.3729 -90.12165,-35.1265 -159.7039,-35.1265 -108.44771,0 -206.55031,24.0436 -294.27432,72.0973 -43.61043,23.8927 -97.98524,5.0804 -117.41796,-40.6762 v 0 c -16.85064,-39.7038 -1.05626,-85.3599 36.04863,-107.3747 98.92425,-58.7006 222.0429,-88.0593 369.30577,-88.0593 110.79504,0 201.95636,20.0866 273.60088,60.3437 112.20356,63.0265 171.64196,201.1682 137.87356,325.3433 -11.0494,40.6426 -31.1025,75.7021 -60.1426,105.1949"
         style="fill:#35539e;fill-opacity:1;fill-rule:nonzero;stroke:none;stroke-width:1.67668"
         id="path54" /><path
         d="m 1896.5342,2825.2779 c -47.45,-50.2836 -76.5573,-121.4755 -87.3215,-213.5924 -0.5366,-4.5271 3.1354,-8.92 7.6959,-8.92 H 2347.31 c 4.3929,0 7.9977,4.0911 7.7294,8.4674 -5.315,92.3348 -29.6605,163.6943 -73.0865,214.045 -44.6501,51.7927 -107.4417,77.6471 -188.4087,77.6471 -82.325,0 -147.9671,-25.8544 -197.01,-77.6471 z m 644.1474,-346.1005 h -726.3048 c -4.4432,0 -8.048,-4.1581 -7.6791,-8.5846 17.8902,-214.3134 126.9583,-321.47 327.2881,-321.47 88.6126,0 170.9208,21.562 247.0086,64.7031 42.6045,24.1275 96.4763,7.2097 116.0766,-37.6583 v 0 c 16.4315,-37.6414 3.1019,-81.9729 -31.8904,-103.468 -35.6295,-21.9141 -75.7356,-40.4247 -120.3354,-55.5987 -71.041,-24.1106 -143.4736,-36.2163 -217.1973,-36.2163 -166.1255,0 -297.1246,47.5842 -392.9469,142.7526 -95.8056,95.0846 -143.6581,226.3687 -143.6581,393.8692 0,106.5363 20.9083,200.8664 62.8086,283.292 41.7996,82.2412 100.7517,146.1395 176.6718,191.611 75.9872,45.3878 162.1853,68.1237 258.7119,68.1237 140.5561,0 250.932,-45.4717 331.1612,-136.2304 80.2292,-90.8593 120.2852,-216.5601 120.2852,-376.9178 v -68.2075"
         style="fill:#35539e;fill-opacity:1;fill-rule:nonzero;stroke:none;stroke-width:1.67668"
         id="path56" /><path
         d="m 3905.2651,3032.851 v 0 c 70.5883,0 118.0216,-72.3823 89.8534,-137.1022 l -353.1593,-811.2286 c -23.4401,-53.8549 -76.5909,-88.6796 -135.325,-88.6796 v 0 c -58.9353,0 -112.1867,35.0594 -135.5261,89.1491 l -346.7377,804.153 c -29.2915,67.9559 20.5394,143.7083 94.5481,143.7083 v 0 c 41.85,0 79.5418,-25.3514 95.3361,-64.0995 l 290.6526,-713.2936 c 2.515,-6.1869 11.2506,-6.2037 13.8158,-0.033 l 295.9678,716.8315 c 15.1404,36.669 50.904,60.5952 90.5743,60.5952"
         style="fill:#35539e;fill-opacity:1;fill-rule:nonzero;stroke:none;stroke-width:1.67668"
         id="path58" /><path
         d="m 4550.8879,2103.3829 v 824.0216 c 0,59.4048 48.1375,107.5424 107.5423,107.5424 v 0 c 59.388,0 107.5423,-48.1376 107.5423,-107.5424 v -824.0216 c 0,-59.3881 -48.1543,-107.5423 -107.5423,-107.5423 v 0 c -59.4048,0 -107.5423,48.1542 -107.5423,107.5423 z m 96.8619,1395.837 h 23.4736 c 61.7521,0 111.801,-50.049 111.801,-111.8012 v 0 c 0,-61.7353 -50.0489,-111.801 -111.801,-111.801 h -23.4736 c -61.7521,0 -111.8011,50.0657 -111.8011,111.801 v 0 c 0,61.7522 50.049,111.8012 111.8011,111.8012"
         style="fill:#35539e;fill-opacity:1;fill-rule:nonzero;stroke:none;stroke-width:1.67668"
         id="path60" /><path
         d="m 408.21149,2502.2821 150.86773,203.9012 c 23.69157,32.0078 70.87336,40.7769 106.23452,19.7345 v 0 c 37.23903,-22.1825 46.66204,-68.5092 20.63991,-101.523 l -139.03037,-185.156 -138.71179,63.0433"
         style="fill:#35539e;fill-opacity:1;fill-rule:nonzero;stroke:none;stroke-width:1.67668"
         id="path62" /><path
         d="M 733.77265,2588.2958 582.1169,2384.9815 c -23.80894,-31.9241 -18.5777,-79.6256 11.77025,-107.4083 v 0 c 31.99102,-29.2579 79.07225,-24.8986 103.16617,9.5572 l 137.11911,186.5811 -100.39978,114.5843"
         style="fill:#35539e;fill-opacity:1;fill-rule:nonzero;stroke:none;stroke-width:1.67668"
         id="path64" /></g></g></svg>
